<?xml version="1.0" encoding="UTF-8" standalone="no" ?>
<!DOCTYPE svg PUBLIC "-//W3C//DTD SVG 1.1//EN" "http://www.w3.org/Graphics/SVG/1.1/DTD/svg11.dtd">
<svg xmlns="http://www.w3.org/2000/svg" xmlns:xlink="http://www.w3.org/1999/xlink" version="1.1" width="400" height="400" viewBox="0 0 400 400" xml:space="preserve">
<desc>Created with Fabric.js 3.6.2</desc>
<defs>
</defs>
<g transform="matrix(8.33 0 0 8.33 200 200)" id="Icons"  >
<path style="stroke: none; stroke-width: 1; stroke-dasharray: none; stroke-linecap: butt; stroke-dashoffset: 0; stroke-linejoin: miter; stroke-miterlimit: 4; fill: rgb(35,35,35); fill-rule: nonzero; opacity: 1;"  transform=" translate(-12, -12)" d="M 20 2 H 19 V 1 a 1 1 0 0 0 -2 0 V 2 H 7 V 1 A 1 1 0 0 0 5 1 V 2 H 4 A 4 4 0 0 0 0 6 V 20 a 4 4 0 0 0 4 4 H 20 a 4 4 0 0 0 4 -4 V 6 A 4 4 0 0 0 20 2 Z m 2 18 a 2 2 0 0 1 -2 2 H 4 a 2 2 0 0 1 -2 -2 V 6 A 2 2 0 0 1 4 4 H 5 V 5 A 1 1 0 0 0 7 5 V 4 H 17 V 5 a 1 1 0 0 0 2 0 V 4 h 1 a 2 2 0 0 1 2 2 Z" stroke-linecap="round" />
</g>
<g transform="matrix(8.33 0 0 8.33 200 166.67)" id="Icons"  >
<path style="stroke: none; stroke-width: 1; stroke-dasharray: none; stroke-linecap: butt; stroke-dashoffset: 0; stroke-linejoin: miter; stroke-miterlimit: 4; fill: rgb(35,35,35); fill-rule: nonzero; opacity: 1;"  transform=" translate(-12, -8)" d="M 19 7 H 5 A 1 1 0 0 0 5 9 H 19 a 1 1 0 0 0 0 -2 Z" stroke-linecap="round" />
</g>
<g transform="matrix(8.33 0 0 8.33 150 208.33)" id="Icons"  >
<path style="stroke: none; stroke-width: 1; stroke-dasharray: none; stroke-linecap: butt; stroke-dashoffset: 0; stroke-linejoin: miter; stroke-miterlimit: 4; fill: rgb(35,35,35); fill-rule: nonzero; opacity: 1;"  transform=" translate(-6, -13)" d="M 7 12 H 5 a 1 1 0 0 0 0 2 H 7 a 1 1 0 0 0 0 -2 Z" stroke-linecap="round" />
</g>
<g transform="matrix(8.33 0 0 8.33 150 250)" id="Icons"  >
<path style="stroke: none; stroke-width: 1; stroke-dasharray: none; stroke-linecap: butt; stroke-dashoffset: 0; stroke-linejoin: miter; stroke-miterlimit: 4; fill: rgb(35,35,35); fill-rule: nonzero; opacity: 1;"  transform=" translate(-6, -18)" d="M 7 17 H 5 a 1 1 0 0 0 0 2 H 7 a 1 1 0 0 0 0 -2 Z" stroke-linecap="round" />
</g>
<g transform="matrix(8.33 0 0 8.33 200 208.33)" id="Icons"  >
<path style="stroke: none; stroke-width: 1; stroke-dasharray: none; stroke-linecap: butt; stroke-dashoffset: 0; stroke-linejoin: miter; stroke-miterlimit: 4; fill: rgb(35,35,35); fill-rule: nonzero; opacity: 1;"  transform=" translate(-12, -13)" d="M 13 12 H 11 a 1 1 0 0 0 0 2 h 2 a 1 1 0 0 0 0 -2 Z" stroke-linecap="round" />
</g>
<g transform="matrix(8.33 0 0 8.33 200 250)" id="Icons"  >
<path style="stroke: none; stroke-width: 1; stroke-dasharray: none; stroke-linecap: butt; stroke-dashoffset: 0; stroke-linejoin: miter; stroke-miterlimit: 4; fill: rgb(35,35,35); fill-rule: nonzero; opacity: 1;"  transform=" translate(-12, -18)" d="M 13 17 H 11 a 1 1 0 0 0 0 2 h 2 a 1 1 0 0 0 0 -2 Z" stroke-linecap="round" />
</g>
<g transform="matrix(8.33 0 0 8.33 250 208.33)" id="Icons"  >
<path style="stroke: none; stroke-width: 1; stroke-dasharray: none; stroke-linecap: butt; stroke-dashoffset: 0; stroke-linejoin: miter; stroke-miterlimit: 4; fill: rgb(35,35,35); fill-rule: nonzero; opacity: 1;"  transform=" translate(-18, -13)" d="M 19 12 H 17 a 1 1 0 0 0 0 2 h 2 a 1 1 0 0 0 0 -2 Z" stroke-linecap="round" />
</g>
<g transform="matrix(8.33 0 0 8.33 250 250)" id="Icons"  >
<path style="stroke: none; stroke-width: 1; stroke-dasharray: none; stroke-linecap: butt; stroke-dashoffset: 0; stroke-linejoin: miter; stroke-miterlimit: 4; fill: rgb(35,35,35); fill-rule: nonzero; opacity: 1;"  transform=" translate(-18, -18)" d="M 19 17 H 17 a 1 1 0 0 0 0 2 h 2 a 1 1 0 0 0 0 -2 Z" stroke-linecap="round" />
</g>
</svg>