<?xml version="1.0" encoding="UTF-8" standalone="no" ?>
<!DOCTYPE svg PUBLIC "-//W3C//DTD SVG 1.1//EN" "http://www.w3.org/Graphics/SVG/1.1/DTD/svg11.dtd">
<svg xmlns="http://www.w3.org/2000/svg" xmlns:xlink="http://www.w3.org/1999/xlink" version="1.1" width="400" height="400" viewBox="0 0 400 400" xml:space="preserve">
<desc>Created with Fabric.js 3.6.2</desc>
<defs>
</defs>
<g transform="matrix(8.33 0 0 8.33 200 200)" id="Icons"  >
<path style="stroke: none; stroke-width: 1; stroke-dasharray: none; stroke-linecap: butt; stroke-dashoffset: 0; stroke-linejoin: miter; stroke-miterlimit: 4; fill: rgb(35,35,35); fill-rule: nonzero; opacity: 1;"  transform=" translate(-12, -12)" d="M 12 0 A 12 12 0 1 0 24 12 A 12.013 12.013 0 0 0 12 0 Z m 0 22 A 10 10 0 1 1 22 12 A 10.011 10.011 0 0 1 12 22 Z" stroke-linecap="round" />
</g>
<g transform="matrix(8.33 0 0 8.33 212.45 187.45)" id="Icons"  >
<path style="stroke: none; stroke-width: 1; stroke-dasharray: none; stroke-linecap: butt; stroke-dashoffset: 0; stroke-linejoin: miter; stroke-miterlimit: 4; fill: rgb(35,35,35); fill-rule: nonzero; opacity: 1;"  transform=" translate(-13.49, -10.49)" d="M 13 11.586 V 6 a 1 1 0 0 0 -2 0 v 6 a 1 1 0 0 0 0.293 0.707 l 3 3 a 1 1 0 0 0 1.414 -1.414 Z" stroke-linecap="round" />
</g>
</svg>