<?xml version="1.0" encoding="UTF-8" standalone="no" ?>
<!DOCTYPE svg PUBLIC "-//W3C//DTD SVG 1.1//EN" "http://www.w3.org/Graphics/SVG/1.1/DTD/svg11.dtd">
<svg xmlns="http://www.w3.org/2000/svg" xmlns:xlink="http://www.w3.org/1999/xlink" version="1.1" width="400" height="400" viewBox="0 0 400 400" xml:space="preserve">
<desc>Created with Fabric.js 3.6.2</desc>
<defs>
</defs>
<g transform="matrix(4 0 0 4 234 166)" id="Layer_1_1_"  >
<path style="stroke: none; stroke-width: 1; stroke-dasharray: none; stroke-linecap: butt; stroke-dashoffset: 0; stroke-linejoin: miter; stroke-miterlimit: 4; fill: rgb(0,0,0); fill-rule: nonzero; opacity: 1;"  transform=" translate(-33.5, -16.5)" d="M 18.293 31.707 h 6.414 l 24 -24 l -6.414 -6.414 l -24 24 V 31.707 z M 45.879 7.707 l -3.586 3.586 l -3.586 -3.586 l 3.586 -3.586 L 45.879 7.707 z M 20.293 26.121 l 17 -17 l 3.586 3.586 l -17 17 h -3.586 V 26.121 z" stroke-linecap="round" />
</g>
<g transform="matrix(4 0 0 4 189.17 210.83)" id="Layer_1_1_"  >
<polygon style="stroke: none; stroke-width: 1; stroke-dasharray: none; stroke-linecap: butt; stroke-dashoffset: 0; stroke-linejoin: miter; stroke-miterlimit: 4; fill: rgb(0,0,0); fill-rule: nonzero; opacity: 1;"  points="21,-8 19,-8 19,19 -19,19 -19,-19 9,-19 9,-21 -21,-21 -21,21 21,21 " />
</g>
</svg>