<?xml version="1.0" encoding="UTF-8" standalone="no"?>
<!-- Created with Inkscape (http://www.inkscape.org/) -->

<svg
   xmlns:dc="http://purl.org/dc/elements/1.1/"
   xmlns:cc="http://creativecommons.org/ns#"
   xmlns:rdf="http://www.w3.org/1999/02/22-rdf-syntax-ns#"
   xmlns:svg="http://www.w3.org/2000/svg"
   xmlns="http://www.w3.org/2000/svg"
   xmlns:sodipodi="http://sodipodi.sourceforge.net/DTD/sodipodi-0.dtd"
   xmlns:inkscape="http://www.inkscape.org/namespaces/inkscape"
   width="210mm"
   height="297mm"
   viewBox="0 0 744.09448819 1052.3622047"
   id="svg3363"
   version="1.1"
   inkscape:version="0.91 r13725"
   sodipodi:docname="Yin Yang.svg">
  <defs
     id="defs3365" />
  <sodipodi:namedview
     id="base"
     pagecolor="#ffffff"
     bordercolor="#666666"
     borderopacity="1.0"
     inkscape:pageopacity="0.0"
     inkscape:pageshadow="2"
     inkscape:zoom="0.35"
     inkscape:cx="0.71428571"
     inkscape:cy="520"
     inkscape:document-units="px"
     inkscape:current-layer="layer1"
     showgrid="false" />
  <metadata
     id="metadata3368">
    <rdf:RDF>
      <cc:Work
         rdf:about="">
        <dc:format>image/svg+xml</dc:format>
        <dc:type
           rdf:resource="http://purl.org/dc/dcmitype/StillImage" />
        <dc:title></dc:title>
      </cc:Work>
    </rdf:RDF>
  </metadata>
  <g
     inkscape:label="Layer 1"
     inkscape:groupmode="layer"
     id="layer1">
    <path
       style="opacity:1;fill:#000000;fill-opacity:1;stroke:none;stroke-width:3;stroke-linejoin:round;stroke-miterlimit:4;stroke-dasharray:none;stroke-dashoffset:0;stroke-opacity:1"
       d="m 376.37149,245.75255 a 125,125 0 0 1 10.5879,1.28516 125,125 0 0 1 12.1914,2.73633 125,125 0 0 1 11.8574,3.93945 125,125 0 0 1 11.4043,5.10547 125,125 0 0 1 10.8379,6.2168 125,125 0 0 1 10.1641,7.26757 125,125 0 0 1 9.3867,8.2461 125,125 0 0 1 8.5176,9.14258 125,125 0 0 1 7.5605,9.94726 125,125 0 0 1 6.5313,10.65235 125,125 0 0 1 5.4355,11.25 125,125 0 0 1 4.2852,11.73828 125,125 0 0 1 3.0898,12.10547 125,125 0 0 1 1.8672,12.35546 125,125 0 0 1 0.625,12.47852 125,125 0 0 1 -0.3125,8.8418 125,125 0 0 1 -1.5058,12.40429 125,125 0 0 1 -2.7364,12.19141 125,125 0 0 1 -3.9414,11.85742 125,125 0 0 1 -5.1035,11.4043 125,125 0 0 1 -6.2168,10.83789 125,125 0 0 1 -7.2676,10.16406 125,125 0 0 1 -8.2461,9.38672 125,125 0 0 1 -9.1425,8.51758 125,125 0 0 1 -9.9473,7.56055 125,125 0 0 1 -10.6524,6.53125 125,125 0 0 1 -11.25,5.43554 125,125 0 0 1 -11.7382,4.28516 125,125 0 0 1 -12.1055,3.08984 125,125 0 0 1 -12.3555,1.86719 125,125 0 0 1 -12.4785,0.625 125,125 0 0 0 -12.4785,0.625 125,125 0 0 0 -12.3555,1.86719 125,125 0 0 0 -12.1054,3.08984 125,125 0 0 0 -11.7383,4.28516 125,125 0 0 0 -11.25,5.43554 125,125 0 0 0 -10.6524,6.53125 125,125 0 0 0 -9.9472,7.56055 125,125 0 0 0 -9.1426,8.51758 125,125 0 0 0 -8.2461,9.38672 125,125 0 0 0 -7.2676,10.16406 125,125 0 0 0 -6.2168,10.83789 125,125 0 0 0 -5.1054,11.4043 125,125 0 0 0 -3.9395,11.85742 125,125 0 0 0 -2.7363,12.19141 125,125 0 0 0 -1.5059,12.40429 125,125 0 0 0 -0.3125,8.8418 125,125 0 0 0 0.625,12.47852 125,125 0 0 0 1.8672,12.35546 125,125 0 0 0 3.0898,12.10547 125,125 0 0 0 4.2852,11.73828 125,125 0 0 0 5.4355,11.25 125,125 0 0 0 6.5313,10.65235 125,125 0 0 0 7.5605,9.94726 125,125 0 0 0 8.5176,9.14258 125,125 0 0 0 9.3867,8.2461 125,125 0 0 0 10.1641,7.26757 125,125 0 0 0 10.8379,6.2168 125,125 0 0 0 11.4043,5.10547 125,125 0 0 0 11.8574,3.93945 125,125 0 0 0 12.1914,2.73633 125,125 0 0 0 10.5762,1.2832 250,250 0 0 0 10.6699,0.53516 125,125 0 0 0 12.4785,-0.625 250,250 0 0 0 237.5215,-249.375 250,250 0 0 0 -239.3418,-249.4668 z"
       id="path4201"
       inkscape:connector-curvature="0" />
    <path
       style="opacity:1;fill:#ececec;fill-opacity:1;stroke:none;stroke-width:3;stroke-linejoin:round;stroke-miterlimit:4;stroke-dasharray:none;stroke-dashoffset:0;stroke-opacity:1"
       d="m 365.71329,245.21935 a 125,125 0 0 0 -12.4785,0.625 250,250 0 0 0 -237.5195,249.375 250,250 0 0 0 239.3301,249.46484 125,125 0 0 1 -10.5762,-1.2832 125,125 0 0 1 -12.1914,-2.73633 125,125 0 0 1 -11.8574,-3.93945 125,125 0 0 1 -11.4043,-5.10547 125,125 0 0 1 -10.8379,-6.2168 125,125 0 0 1 -10.1641,-7.26757 125,125 0 0 1 -9.3867,-8.2461 125,125 0 0 1 -8.5176,-9.14258 125,125 0 0 1 -7.5605,-9.94726 125,125 0 0 1 -6.5313,-10.65235 125,125 0 0 1 -5.4355,-11.25 125,125 0 0 1 -4.2852,-11.73828 125,125 0 0 1 -3.0898,-12.10547 125,125 0 0 1 -1.8672,-12.35546 125,125 0 0 1 -0.625,-12.47852 125,125 0 0 1 0.3125,-8.8418 125,125 0 0 1 1.5059,-12.40429 125,125 0 0 1 2.7363,-12.19141 125,125 0 0 1 3.9395,-11.85742 125,125 0 0 1 5.1054,-11.4043 125,125 0 0 1 6.2168,-10.83789 125,125 0 0 1 7.2676,-10.16406 125,125 0 0 1 8.2461,-9.38672 125,125 0 0 1 9.1426,-8.51758 125,125 0 0 1 9.9472,-7.56055 125,125 0 0 1 10.6524,-6.53125 125,125 0 0 1 11.25,-5.43554 125,125 0 0 1 11.7383,-4.28516 125,125 0 0 1 12.1054,-3.08984 125,125 0 0 1 12.3555,-1.86719 125,125 0 0 1 12.4785,-0.625 125,125 0 0 0 12.4785,-0.625 125,125 0 0 0 12.3555,-1.86719 125,125 0 0 0 12.1055,-3.08984 125,125 0 0 0 11.7382,-4.28516 125,125 0 0 0 11.25,-5.43554 125,125 0 0 0 10.6524,-6.53125 125,125 0 0 0 9.9473,-7.56055 125,125 0 0 0 9.1425,-8.51758 125,125 0 0 0 8.2461,-9.38672 125,125 0 0 0 7.2676,-10.16406 125,125 0 0 0 6.2168,-10.83789 125,125 0 0 0 5.1035,-11.4043 125,125 0 0 0 3.9414,-11.85742 125,125 0 0 0 2.7364,-12.19141 125,125 0 0 0 1.5058,-12.40429 125,125 0 0 0 0.3125,-8.8418 125,125 0 0 0 -0.625,-12.47852 125,125 0 0 0 -1.8672,-12.35546 125,125 0 0 0 -3.0898,-12.10547 125,125 0 0 0 -4.2852,-11.73828 125,125 0 0 0 -5.4355,-11.25 125,125 0 0 0 -6.5313,-10.65235 125,125 0 0 0 -7.5605,-9.94726 125,125 0 0 0 -8.5176,-9.14258 125,125 0 0 0 -9.3867,-8.2461 125,125 0 0 0 -10.1641,-7.26757 125,125 0 0 0 -10.8379,-6.2168 125,125 0 0 0 -11.4043,-5.10547 125,125 0 0 0 -11.8574,-3.93945 125,125 0 0 0 -12.1914,-2.73633 125,125 0 0 0 -10.5879,-1.28516 250,250 0 0 0 -10.6582,-0.5332 z"
       id="path4197"
       inkscape:connector-curvature="0" />
    <circle
       r="35"
       cy="620.21851"
       cx="365.7142"
       id="circle4193"
       style="opacity:1;fill:#ececec;fill-opacity:1;stroke:none;stroke-width:3;stroke-linejoin:round;stroke-miterlimit:4;stroke-dasharray:none;stroke-dashoffset:0;stroke-opacity:1" />
    <circle
       style="opacity:1;fill:#000000;fill-opacity:1;stroke:none;stroke-width:3;stroke-linejoin:round;stroke-miterlimit:4;stroke-dasharray:none;stroke-dashoffset:0;stroke-opacity:1"
       id="path4187"
       cx="365.7142"
       cy="370.21851"
       r="35" />
  </g>
</svg>
