<?xml version="1.0" ?><svg viewBox="0 0 64 64" xmlns="http://www.w3.org/2000/svg"><title/><g data-name="Champ Medal" id="Champ_Medal"><path d="M32,23A17,17,0,1,0,49,40,17.019,17.019,0,0,0,32,23Zm0,32A15,15,0,1,1,47,40,15.0167,15.0167,0,0,1,32,55Z"/><path d="M36,31H28a1,1,0,0,0,0,2h7v6H29a1,1,0,0,0,0,2h6v6H28a1,1,0,0,0,0,2h8a1,1,0,0,0,1-1V32A1,1,0,0,0,36,31Z"/><path d="M57.835,2.45A1.0011,1.0011,0,0,0,57,2H43a.9988.9988,0,0,0-.9189.606l-6.708,15.6529a21.1095,21.1095,0,0,0-6.7354.0229L21.9189,2.606A.9988.9988,0,0,0,21,2H7a1,1,0,0,0-.9189,1.394l9.455,22.0484a21.9945,21.9945,0,1,0,32.9314-.0083l9.4514-22.04A1,1,0,0,0,57.835,2.45ZM43.6592,4h5.8241L42.37,20.5905c-.5676-.3033-1.1516-.5753-1.7454-.8274q-.0651-.0281-.13-.0556c-.2769-.1155-.5554-.2266-.8374-.3307-.134-.05-.27-.0956-.4049-.1429-.2251-.0781-.4489-.1587-.677-.23q-.5667-.1779-1.1464-.325c-.0181-.0046-.0355-.0107-.0536-.0152ZM20.3408,4,26.626,18.6641c-.0946.0236-.1863.0547-.28.0795-.1756.0463-.3488.0977-.5227.1482q-.5154.15-1.02.3231c-.1728.0594-.3454.1185-.5162.1821-.3627.135-.72.2818-1.0739.4356-.1284.0557-.2591.1062-.3863.1644q-.6076.2781-1.1962.5935L14.5167,4ZM8.5166,4h3.8243l7.5544,17.62c-.0888.0587-.172.1265-.26.1865q-.4292.2928-.8449.6059c-.1526.1152-.3048.2306-.4547.35-.2893.23-.5715.4711-.85.7171-.1183.1045-.24.2044-.3559.3116-.03.0276-.0618.0524-.0916.08ZM52,40A19.9777,19.9777,0,1,1,19.75,24.1841,20.0258,20.0258,0,0,1,32,20a20.0054,20.0054,0,0,1,3.911.39c.1607.0318.3172.0752.4766.1108.4537.1021.9036.2143,1.3451.3467.1525.0453.3029.0951.4539.1438.4921.1606.9776.3356,1.4523.5325.0695.0286.14.0555.2092.0849a20.0323,20.0323,0,0,1,4.8313,2.9382c.0293.0242.0579.0492.087.0735.4314.3587.8446.7381,1.2443,1.1311.0708.07.1424.1385.2123.21A19.9306,19.9306,0,0,1,52,40ZM46.9619,23.8711a21.8511,21.8511,0,0,0-2.861-2.2425L51.6591,4h3.8243Z"/></g></svg>