<?xml version="1.0" ?><svg viewBox="0 0 64 64" xmlns="http://www.w3.org/2000/svg"><title/><g data-name="Champ Medal" id="Champ_Medal-3"><path d="M32,23A17,17,0,1,0,49,40,17.019,17.019,0,0,0,32,23Zm0,32A15,15,0,1,1,47,40,15.017,15.017,0,0,1,32,55Z"/><path d="M36,47H33V32a1,1,0,0,0-1.4473-.8945l-4,2a1,1,0,1,0,.8946,1.789L31,33.6182V47H28a1,1,0,0,0,0,2h8a1,1,0,0,0,0-2Z"/><path d="M57.835,2.45A1,1,0,0,0,57,2H43a.9993.9993,0,0,0-.9189.606L35.3726,18.2587a21.1128,21.1128,0,0,0-6.7353.0232L21.9189,2.606A.9993.9993,0,0,0,21,2H7a1,1,0,0,0-.9189,1.394l9.4551,22.0487a21.9944,21.9944,0,1,0,32.9313-.0086l9.4514-22.04A.9985.9985,0,0,0,57.835,2.45ZM43.6592,4h5.8242L42.3706,20.5906c-.5677-.3034-1.1519-.5753-1.7458-.8275q-.0651-.0281-.13-.0556c-.2769-.1155-.5554-.2266-.8374-.3307-.134-.05-.27-.0956-.4049-.1429-.2251-.0781-.4489-.1587-.677-.23q-.5667-.1779-1.1464-.325c-.0181-.0046-.0355-.0107-.0536-.0152ZM20.3408,4,26.625,18.6641c-.0953.0238-.1877.0551-.2826.08-.1736.0458-.3449.0967-.5168.1465q-.518.15-1.0256.3248c-.1717.0592-.3433.1179-.5132.1812-.3638.1353-.7217.2824-1.0767.4367-.1275.0553-.2574.1056-.3837.1634q-.6082.2781-1.197.5938L14.5166,4ZM8.5171,4h3.8237L19.895,21.62c-.0874.0577-.1692.1244-.2558.1834q-.4335.2956-.8534.612c-.15.1131-.2989.2262-.4459.3433-.2946.2347-.582.4794-.8654.73-.1132.1-.23.1958-.341.2985-.0312.0288-.0644.0547-.0954.0836ZM52,40A20,20,0,1,1,17.43,26.3037q.5425-.5793,1.1233-1.11A19.9935,19.9935,0,0,1,32,20a20.0093,20.0093,0,0,1,3.91.3893c.162.0321.32.0758.4805.1117.4524.1018.901.2138,1.3413.3458.153.0454.3042.0953.4558.1443.4915.16.9765.3353,1.4505.532.07.0288.1407.0557.21.0853a20.0317,20.0317,0,0,1,4.8295,2.9368c.0306.0252.0606.0515.091.0769.4293.3571.8406.7347,1.2385,1.1258.0728.0718.1464.1424.2182.2155A19.93,19.93,0,0,1,52,40ZM46.9619,23.8711a21.861,21.861,0,0,0-2.8606-2.2423L51.6592,4h3.8237Z"/></g></svg>