<?xml version="1.0" encoding="UTF-8" standalone="no" ?>
<!DOCTYPE svg PUBLIC "-//W3C//DTD SVG 1.1//EN" "http://www.w3.org/Graphics/SVG/1.1/DTD/svg11.dtd">
<svg xmlns="http://www.w3.org/2000/svg" xmlns:xlink="http://www.w3.org/1999/xlink" version="1.1" width="400" height="400" viewBox="0 0 400 400" xml:space="preserve">
<desc>Created with Fabric.js 3.6.2</desc>
<defs>
</defs>
<g transform="matrix(9.42 0 0 9.42 200 200)" id="Layer_2"  >
<path style="stroke: none; stroke-width: 1; stroke-dasharray: none; stroke-linecap: butt; stroke-dashoffset: 0; stroke-linejoin: miter; stroke-miterlimit: 4; fill: rgb(0,0,0); fill-rule: nonzero; opacity: 1;"  transform=" translate(-12, -12.01)" d="M 12 6.34 L 9.59 2 H 1.38 L 6.85 12.94 a 6 6 0 1 0 10.3 0 L 22.62 2 H 14.41 Z M 8.41 4 l 2.44 4.4 L 9.71 10.46 a 6 6 0 0 0 -1.44 0.85 L 4.62 4 Z M 12 20 a 4 4 0 0 1 0 -8 v 1.33 h 0 V 12 h 0 a 4 4 0 0 1 0 8 Z M 19.38 4 l -3.65 7.31 A 6 6 0 0 0 12.25 10 l 3.34 -6 Z" stroke-linecap="round" />
</g>
</svg>