<?xml version="1.0" encoding="UTF-8" standalone="no" ?>
<!DOCTYPE svg PUBLIC "-//W3C//DTD SVG 1.1//EN" "http://www.w3.org/Graphics/SVG/1.1/DTD/svg11.dtd">
<svg xmlns="http://www.w3.org/2000/svg" xmlns:xlink="http://www.w3.org/1999/xlink" version="1.1" width="400" height="400" viewBox="0 0 400 400" xml:space="preserve">
<desc>Created with Fabric.js 3.6.2</desc>
<defs>
</defs>
<g transform="matrix(0.39 0 0 0.39 244.34 124.65)" id="XMLID_1317_"  >
<polygon style="stroke: none; stroke-width: 1; stroke-dasharray: none; stroke-linecap: butt; stroke-dashoffset: 0; stroke-linejoin: miter; stroke-miterlimit: 4; fill: rgb(0,0,0); fill-rule: nonzero; opacity: 1;"  points="49.8,49.8 -49.8,49.8 -49.8,-49.8 -35.3,-49.8 -35.3,35.3 49.8,35.3 " />
</g>
<g transform="matrix(0.39 0 0 0.39 190.72 200)" id="XMLID_1315_"  >
<polygon style="stroke: none; stroke-width: 1; stroke-dasharray: none; stroke-linecap: butt; stroke-dashoffset: 0; stroke-linejoin: miter; stroke-miterlimit: 4; fill: rgb(0,0,0); fill-rule: nonzero; opacity: 1;"  points="194.35,250 -194.35,250 -194.35,-250 101.75,-250 194.35,-153.3 194.35,0 179.85,0 179.85,-147.4 95.55,-235.5 -179.85,-235.5 -179.85,235.5 179.85,235.5 179.85,201.1 194.35,201.1 " />
</g>
<g transform="matrix(0.39 0 0 0.39 177.05 146.35)" id="XMLID_1312_"  >
<rect style="stroke: none; stroke-width: 1; stroke-dasharray: none; stroke-linecap: butt; stroke-dashoffset: 0; stroke-linejoin: miter; stroke-miterlimit: 4; fill: rgb(0,0,0); fill-rule: nonzero; opacity: 1;"  x="-98.55" y="-7.25" rx="0" ry="0" width="197.1" height="14.5" />
</g>
<g transform="matrix(0.39 0 0 0.39 163.93 163.07)" id="XMLID_1310_"  >
<rect style="stroke: none; stroke-width: 1; stroke-dasharray: none; stroke-linecap: butt; stroke-dashoffset: 0; stroke-linejoin: miter; stroke-miterlimit: 4; fill: rgb(0,0,0); fill-rule: nonzero; opacity: 1;"  x="-64.95" y="-7.25" rx="0" ry="0" width="129.9" height="14.5" />
</g>
<g transform="matrix(0.39 0 0 0.39 190.7 179.82)" id="XMLID_1308_"  >
<rect style="stroke: none; stroke-width: 1; stroke-dasharray: none; stroke-linecap: butt; stroke-dashoffset: 0; stroke-linejoin: miter; stroke-miterlimit: 4; fill: rgb(0,0,0); fill-rule: nonzero; opacity: 1;"  x="-133.5" y="-7.25" rx="0" ry="0" width="267" height="14.5" />
</g>
<g transform="matrix(0.39 0 0 0.39 190.7 196.54)" id="XMLID_1306_"  >
<rect style="stroke: none; stroke-width: 1; stroke-dasharray: none; stroke-linecap: butt; stroke-dashoffset: 0; stroke-linejoin: miter; stroke-miterlimit: 4; fill: rgb(0,0,0); fill-rule: nonzero; opacity: 1;"  x="-133.5" y="-7.25" rx="0" ry="0" width="267" height="14.5" />
</g>
<g transform="matrix(0.39 0 0 0.39 263.83 241.35)" id="XMLID_1299_"  >
<path style="stroke: none; stroke-width: 1; stroke-dasharray: none; stroke-linecap: butt; stroke-dashoffset: 0; stroke-linejoin: miter; stroke-miterlimit: 4; fill: rgb(0,0,0); fill-rule: nonzero; opacity: 1;"  transform=" translate(-419.4, -361.85)" d="M 419.3 475 L 341 361.7 h 33.5 v -113 h 89.8 v 113 h 33.5 L 419.3 475 z M 368.7 376.2 l 50.7 73.3 l 50.7 -73.3 h -20.3 v -113 H 389 v 113 H 368.7 z" stroke-linecap="round" />
</g>
<g transform="matrix(0.39 0 0 0.39 135.88 247.01)" id="XMLID_2056_"  >
<path style="stroke: none; stroke-width: 1; stroke-dasharray: none; stroke-linecap: butt; stroke-dashoffset: 0; stroke-linejoin: miter; stroke-miterlimit: 4; fill: rgb(0,0,0); fill-rule: nonzero; opacity: 1;"  transform=" translate(-91.85, -376.35)" d="M 92.6 367.5 H 81.8 v 17.7 h 10.8 c 3.1 0 5.4 -0.8 7 -2.5 c 1.6 -1.6 2.3 -3.7 2.3 -6.3 c 0 -2.5 -0.8 -4.7 -2.3 -6.4 C 98 368.3 95.7 367.5 92.6 367.5 z" stroke-linecap="round" />
</g>
<g transform="matrix(0.39 0 0 0.39 154.38 250.7)" id="XMLID_2057_"  >
<path style="stroke: none; stroke-width: 1; stroke-dasharray: none; stroke-linecap: butt; stroke-dashoffset: 0; stroke-linejoin: miter; stroke-miterlimit: 4; fill: rgb(0,0,0); fill-rule: nonzero; opacity: 1;"  transform=" translate(-139.2, -385.8)" d="M 136.8 367.5 h -8.2 v 36.6 h 8.2 c 4 0 7.2 -1.4 9.5 -4.1 c 2.4 -2.7 3.5 -6.2 3.5 -10.5 v -7.7 c 0 -4.2 -1.2 -7.7 -3.5 -10.4 C 144 368.8 140.8 367.5 136.8 367.5 z" stroke-linecap="round" />
</g>
<g transform="matrix(0.39 0 0 0.39 157.87 250.7)" id="XMLID_2164_"  >
<path style="stroke: none; stroke-width: 1; stroke-dasharray: none; stroke-linecap: butt; stroke-dashoffset: 0; stroke-linejoin: miter; stroke-miterlimit: 4; fill: rgb(0,0,0); fill-rule: nonzero; opacity: 1;"  transform=" translate(-148.15, -385.8)" d="M 282 328.3 H 14.3 v 115 H 282 l -56.9 -57.5 L 282 328.3 z M 105.5 387.6 c -3.1 2.8 -7.4 4.2 -13 4.2 H 81.8 v 19 h -8.3 v -50 h 19.2 c 5.5 0 9.8 1.4 13 4.3 c 3.1 2.9 4.7 6.6 4.7 11.2 C 110.2 381 108.7 384.7 105.5 387.6 z M 158.3 389.6 c 0 6.3 -2 11.3 -6 15.3 c -4 3.9 -9.1 5.9 -15.5 5.9 h -16.5 v -50 h 16.5 c 6.3 0 11.5 2 15.5 5.9 c 4 4 6 9.1 6 15.3 V 389.6 z M 201.5 367.5 h -23.7 v 15.3 H 198 v 6.7 h -20.2 v 21.3 h -8.3 v -50 h 32 V 367.5 z" stroke-linecap="round" />
</g>
</svg>