<?xml version="1.0" encoding="UTF-8" standalone="no" ?>
<!DOCTYPE svg PUBLIC "-//W3C//DTD SVG 1.1//EN" "http://www.w3.org/Graphics/SVG/1.1/DTD/svg11.dtd">
<svg xmlns="http://www.w3.org/2000/svg" xmlns:xlink="http://www.w3.org/1999/xlink" version="1.1" width="400" height="400" viewBox="0 0 400 400" xml:space="preserve">
<desc>Created with Fabric.js 3.6.2</desc>
<defs>
</defs>
<g transform="matrix(8.33 0 0 8.33 150 241.67)" id="Layer_2"  >
<path style="stroke: none; stroke-width: 1; stroke-dasharray: none; stroke-linecap: butt; stroke-dashoffset: 0; stroke-linejoin: miter; stroke-miterlimit: 4; fill: rgb(0,0,0); fill-rule: nonzero; opacity: 1;"  transform=" translate(-6, -17)" d="M 2 20 v 2 h 8 V 20 a 4 4 0 0 0 -1.62 -3.2 A 3 3 0 0 0 9 15 a 3 3 0 0 0 -6 0 a 3 3 0 0 0 0.62 1.8 A 4 4 0 0 0 2 20 Z" stroke-linecap="round" />
</g>
<g transform="matrix(8.33 0 0 8.33 250 158.33)" id="Layer_2"  >
<path style="stroke: none; stroke-width: 1; stroke-dasharray: none; stroke-linecap: butt; stroke-dashoffset: 0; stroke-linejoin: miter; stroke-miterlimit: 4; fill: rgb(0,0,0); fill-rule: nonzero; opacity: 1;"  transform=" translate(-18, -7)" d="M 20.38 6.8 A 3 3 0 0 0 21 5 a 3 3 0 0 0 -6 0 a 3 3 0 0 0 0.62 1.8 A 4 4 0 0 0 14 10 v 2 h 8 V 10 A 4 4 0 0 0 20.38 6.8 Z" stroke-linecap="round" />
</g>
<g transform="matrix(8.33 0 0 8.33 175 166.67)" id="Layer_2"  >
<polygon style="stroke: none; stroke-width: 1; stroke-dasharray: none; stroke-linecap: butt; stroke-dashoffset: 0; stroke-linejoin: miter; stroke-miterlimit: 4; fill: rgb(0,0,0); fill-rule: nonzero; opacity: 1;"  points="-4,3 -2,3 -2,-1 4,-1 4,-3 -4,-3 -4,3 " />
</g>
<g transform="matrix(8.33 0 0 8.33 225 233.33)" id="Layer_2"  >
<polygon style="stroke: none; stroke-width: 1; stroke-dasharray: none; stroke-linecap: butt; stroke-dashoffset: 0; stroke-linejoin: miter; stroke-miterlimit: 4; fill: rgb(0,0,0); fill-rule: nonzero; opacity: 1;"  points="2,1 -4,1 -4,3 4,3 4,-3 2,-3 2,1 " />
</g>
</svg>