<?xml version="1.0" encoding="UTF-8" standalone="no" ?>
<!DOCTYPE svg PUBLIC "-//W3C//DTD SVG 1.1//EN" "http://www.w3.org/Graphics/SVG/1.1/DTD/svg11.dtd">
<svg xmlns="http://www.w3.org/2000/svg" xmlns:xlink="http://www.w3.org/1999/xlink" version="1.1" width="400" height="400" viewBox="0 0 400 400" xml:space="preserve">
<desc>Created with Fabric.js 3.6.2</desc>
<defs>
</defs>
<g transform="matrix(6.25 0 0 6.25 200 181.25)" id="_79-users"  >
<circle style="stroke: rgb(0,0,0); stroke-width: 2; stroke-dasharray: none; stroke-linecap: round; stroke-dashoffset: 0; stroke-linejoin: round; stroke-miterlimit: 4; fill: none; fill-rule: nonzero; opacity: 1;"  cx="0" cy="0" r="5" />
</g>
<g transform="matrix(6.25 0 0 6.25 200 253.13)" id="_79-users"  >
<path style="stroke: rgb(0,0,0); stroke-width: 2; stroke-dasharray: none; stroke-linecap: round; stroke-dashoffset: 0; stroke-linejoin: round; stroke-miterlimit: 4; fill: none; fill-rule: nonzero; opacity: 1;"  transform=" translate(-16, -24.5)" d="M 23 28 A 7 7 0 0 0 9 28 Z" stroke-linecap="round" />
</g>
<g transform="matrix(6.25 0 0 6.25 253.13 156.25)" id="_79-users"  >
<path style="stroke: rgb(0,0,0); stroke-width: 2; stroke-dasharray: none; stroke-linecap: round; stroke-dashoffset: 0; stroke-linejoin: round; stroke-miterlimit: 4; fill: none; fill-rule: nonzero; opacity: 1;"  transform=" translate(-24.5, -9)" d="M 24 14 a 5 5 0 1 0 -4 -8" stroke-linecap="round" />
</g>
<g transform="matrix(6.25 0 0 6.25 271.88 228.13)" id="_79-users"  >
<path style="stroke: rgb(0,0,0); stroke-width: 2; stroke-dasharray: none; stroke-linecap: round; stroke-dashoffset: 0; stroke-linejoin: round; stroke-miterlimit: 4; fill: none; fill-rule: nonzero; opacity: 1;"  transform=" translate(-27.5, -20.5)" d="M 25 24 h 6 a 7 7 0 0 0 -7 -7" stroke-linecap="round" />
</g>
<g transform="matrix(6.25 0 0 6.25 146.87 156.25)" id="_79-users"  >
<path style="stroke: rgb(0,0,0); stroke-width: 2; stroke-dasharray: none; stroke-linecap: round; stroke-dashoffset: 0; stroke-linejoin: round; stroke-miterlimit: 4; fill: none; fill-rule: nonzero; opacity: 1;"  transform=" translate(-7.5, -9)" d="M 12 6 a 5 5 0 1 0 -4 8" stroke-linecap="round" />
</g>
<g transform="matrix(6.25 0 0 6.25 128.13 228.13)" id="_79-users"  >
<path style="stroke: rgb(0,0,0); stroke-width: 2; stroke-dasharray: none; stroke-linecap: round; stroke-dashoffset: 0; stroke-linejoin: round; stroke-miterlimit: 4; fill: none; fill-rule: nonzero; opacity: 1;"  transform=" translate(-4.5, -20.5)" d="M 8 17 a 7 7 0 0 0 -7 7 H 7" stroke-linecap="round" />
</g>
</svg>