<?xml version="1.0" encoding="UTF-8" standalone="no" ?>
<!DOCTYPE svg PUBLIC "-//W3C//DTD SVG 1.1//EN" "http://www.w3.org/Graphics/SVG/1.1/DTD/svg11.dtd">
<svg xmlns="http://www.w3.org/2000/svg" xmlns:xlink="http://www.w3.org/1999/xlink" version="1.1" width="400" height="400" viewBox="0 0 400 400" xml:space="preserve">
<desc>Created with Fabric.js 3.6.2</desc>
<defs>
</defs>
<g transform="matrix(6.67 0 0 6.67 200 200)" id="path1642"  >
<path style="stroke: none; stroke-width: 1.99999988; stroke-dasharray: none; stroke-linecap: round; stroke-dashoffset: 0; stroke-linejoin: round; stroke-miterlimit: 4; fill: rgb(0,0,0); fill-rule: nonzero; opacity: 1;" vector-effect="non-scaling-stroke"  transform=" translate(-16, -16)" d="M 12.003906 4.9980469 A 1.000252 1.000252 0 0 0 11.875 5.0058594 C 5.8696297 5.073871 1 9.9789024 1 16 C 0.99999981 22.063307 5.9367122 27 12 27 C 17.725846 27 22.441457 22.596302 22.949219 17 L 30 17 A 1.0001001 1.0001001 0 0 0 30.996094 16.003906 L 30.996094 6.0019531 A 1.0001001 1.0001001 0 0 0 30 4.9980469 L 23.998047 4.9980469 L 17.996094 4.9980469 L 12.003906 4.9980469 z M 12.050781 6.9980469 L 17 6.9980469 L 17 10.001953 A 1.0001 1.0001 0 0 0 17.996094 10.998047 L 23.998047 10.998047 A 1.0001 1.0001 0 0 0 25.001953 10.001953 L 25.001953 6.9980469 L 29.003906 6.9980469 L 29.003906 15 L 22.167969 15 A 1.0000999 1.0000999 0 0 0 21.011719 15.830078 A 1.000252 1.000252 0 0 0 20.998047 16.033203 C 20.980008 21.000069 16.971187 25 12 25 C 7.0175925 25 2.9999999 20.982438 3 16 C 3 11.0176 7.0175925 7 12 7 A 1.0000999 1.0000999 0 0 0 12.050781 6.9980469 z M 19.001953 6.9980469 L 23.001953 6.9980469 L 23.001953 8.9980469 L 19.001953 8.9980469 L 19.001953 6.9980469 z M 12.003906 10.998047 C 9.2543332 10.998047 6.9980556 13.254338 6.9980469 16.003906 C 6.9980295 18.753475 9.2543155 21.001953 12.003906 21.001953 C 14.753497 21.001953 17.000017 18.753475 17 16.003906 C 16.999991 13.254338 14.753479 10.998047 12.003906 10.998047 z M 12.003906 13 C 13.672601 13 14.999995 14.335207 15 16.003906 C 15.000011 17.672605 13.672613 19 12.003906 19 C 10.3352 19 8.9980363 17.672605 8.9980469 16.003906 C 8.9980522 14.335207 10.335211 13 12.003906 13 z" stroke-linecap="round" />
</g>
</svg>